# xmcd
#
# Track frame offsets:
#	150
#	17257
#	33965
#	48946
#	64273
#	77754
#	90343
#	101656
#	113199
#	129364
#
# Disc length: 1875 seconds
#
# Revision: 0
# Processed by: cddbd v1.5.2PL0 Copyright (c) Steve Scherf et al.
# Submitted via: dBpowerAMP V4.0
#
DISCID=6e07510a
DTITLE=Janína Barros - Coisa Boa
DYEAR=2008
DGENRE=Sertanejo
TTITLE0=Trem Bão
TTITLE1=O Melô das Comitivas
TTITLE2=Teatro da Vida
TTITLE3=Sonho Real
TTITLE4=O Caminhoneiro
TTITLE5=É Possível
TTITLE6=Hoje Não Tô Bão
TTITLE7=Caia Na Minha Mão
TTITLE8=Taty
TTITLE9=Dancei
EXTD=
EXTT0=
EXTT1=
EXTT2=
EXTT3=
EXTT4=
EXTT5=
EXTT6=
EXTT7=
EXTT8=
EXTT9=
PLAYORDER=
